<mxfile host="app.diagrams.net" modified="2024-07-05T02:11:00.911Z" agent="Mozilla/5.0 (Windows NT 10.0; Win64; x64) AppleWebKit/537.36 (KHTML, like Gecko) Chrome/126.0.0.0 Safari/537.36 Edg/126.0.0.0" etag="IUANXGTq8F3xPOQBn8CS" version="24.6.4" type="github">
  <diagram id="C5RBs43oDa-KdzZeNtuy" name="Page-1">
    <mxGraphModel dx="746" dy="467" grid="1" gridSize="10" guides="1" tooltips="1" connect="1" arrows="1" fold="1" page="1" pageScale="1" pageWidth="827" pageHeight="1169" math="0" shadow="0">
      <root>
        <mxCell id="WIyWlLk6GJQsqaUBKTNV-0" />
        <mxCell id="WIyWlLk6GJQsqaUBKTNV-1" parent="WIyWlLk6GJQsqaUBKTNV-0" />
        <mxCell id="qgOHyT52jXSN1r_aIjkW-0" style="edgeStyle=orthogonalEdgeStyle;rounded=0;orthogonalLoop=1;jettySize=auto;html=1;exitX=0;exitY=0.506;exitDx=0;exitDy=0;exitPerimeter=0;" edge="1" parent="WIyWlLk6GJQsqaUBKTNV-1" source="qgOHyT52jXSN1r_aIjkW-7" target="qgOHyT52jXSN1r_aIjkW-14">
          <mxGeometry relative="1" as="geometry">
            <mxPoint x="529" y="730" as="sourcePoint" />
          </mxGeometry>
        </mxCell>
        <mxCell id="qgOHyT52jXSN1r_aIjkW-1" style="edgeStyle=orthogonalEdgeStyle;rounded=0;orthogonalLoop=1;jettySize=auto;html=1;exitX=0.5;exitY=1;exitDx=0;exitDy=0;entryX=0.5;entryY=0;entryDx=0;entryDy=0;" edge="1" parent="WIyWlLk6GJQsqaUBKTNV-1" source="qgOHyT52jXSN1r_aIjkW-7" target="qgOHyT52jXSN1r_aIjkW-16">
          <mxGeometry relative="1" as="geometry" />
        </mxCell>
        <mxCell id="qgOHyT52jXSN1r_aIjkW-2" style="edgeStyle=orthogonalEdgeStyle;rounded=0;orthogonalLoop=1;jettySize=auto;html=1;exitX=0;exitY=0.5;exitDx=0;exitDy=0;entryX=0.5;entryY=0;entryDx=0;entryDy=0;" edge="1" parent="WIyWlLk6GJQsqaUBKTNV-1" source="qgOHyT52jXSN1r_aIjkW-7" target="qgOHyT52jXSN1r_aIjkW-10">
          <mxGeometry relative="1" as="geometry" />
        </mxCell>
        <mxCell id="qgOHyT52jXSN1r_aIjkW-3" style="edgeStyle=orthogonalEdgeStyle;rounded=0;orthogonalLoop=1;jettySize=auto;html=1;exitX=1;exitY=0.5;exitDx=0;exitDy=0;entryX=0.5;entryY=0;entryDx=0;entryDy=0;" edge="1" parent="WIyWlLk6GJQsqaUBKTNV-1" source="qgOHyT52jXSN1r_aIjkW-7" target="qgOHyT52jXSN1r_aIjkW-22">
          <mxGeometry relative="1" as="geometry" />
        </mxCell>
        <mxCell id="qgOHyT52jXSN1r_aIjkW-4" style="edgeStyle=orthogonalEdgeStyle;rounded=0;orthogonalLoop=1;jettySize=auto;html=1;exitX=1;exitY=0.5;exitDx=0;exitDy=0;entryX=0.5;entryY=0;entryDx=0;entryDy=0;" edge="1" parent="WIyWlLk6GJQsqaUBKTNV-1" source="qgOHyT52jXSN1r_aIjkW-7" target="qgOHyT52jXSN1r_aIjkW-24">
          <mxGeometry relative="1" as="geometry" />
        </mxCell>
        <mxCell id="qgOHyT52jXSN1r_aIjkW-5" style="edgeStyle=orthogonalEdgeStyle;rounded=0;orthogonalLoop=1;jettySize=auto;html=1;exitX=0;exitY=0.5;exitDx=0;exitDy=0;entryX=0.5;entryY=0;entryDx=0;entryDy=0;" edge="1" parent="WIyWlLk6GJQsqaUBKTNV-1" source="qgOHyT52jXSN1r_aIjkW-7" target="qgOHyT52jXSN1r_aIjkW-12">
          <mxGeometry relative="1" as="geometry" />
        </mxCell>
        <mxCell id="qgOHyT52jXSN1r_aIjkW-6" style="edgeStyle=orthogonalEdgeStyle;rounded=0;orthogonalLoop=1;jettySize=auto;html=1;exitX=1;exitY=0.5;exitDx=0;exitDy=0;" edge="1" parent="WIyWlLk6GJQsqaUBKTNV-1" source="qgOHyT52jXSN1r_aIjkW-7" target="qgOHyT52jXSN1r_aIjkW-20">
          <mxGeometry relative="1" as="geometry" />
        </mxCell>
        <mxCell id="qgOHyT52jXSN1r_aIjkW-7" value="OA系统" style="whiteSpace=wrap;html=1;aspect=fixed;fillColor=#dae8fc;strokeColor=#6c8ebf;" vertex="1" parent="WIyWlLk6GJQsqaUBKTNV-1">
          <mxGeometry x="540" y="680" width="80" height="80" as="geometry" />
        </mxCell>
        <mxCell id="qgOHyT52jXSN1r_aIjkW-8" value="食堂消费系统" style="whiteSpace=wrap;html=1;aspect=fixed;fillColor=#d5e8d4;strokeColor=#82b366;" vertex="1" parent="WIyWlLk6GJQsqaUBKTNV-1">
          <mxGeometry x="540" y="900" width="80" height="80" as="geometry" />
        </mxCell>
        <mxCell id="qgOHyT52jXSN1r_aIjkW-9" style="edgeStyle=orthogonalEdgeStyle;rounded=0;orthogonalLoop=1;jettySize=auto;html=1;exitX=0.5;exitY=1;exitDx=0;exitDy=0;entryX=0;entryY=0.5;entryDx=0;entryDy=0;" edge="1" parent="WIyWlLk6GJQsqaUBKTNV-1" source="qgOHyT52jXSN1r_aIjkW-10" target="qgOHyT52jXSN1r_aIjkW-8">
          <mxGeometry relative="1" as="geometry" />
        </mxCell>
        <mxCell id="qgOHyT52jXSN1r_aIjkW-10" value="&lt;span style=&quot;font-size: 11px; text-wrap: nowrap; background-color: rgb(255, 255, 255);&quot;&gt;新增人员&lt;/span&gt;" style="rounded=0;whiteSpace=wrap;html=1;" vertex="1" parent="WIyWlLk6GJQsqaUBKTNV-1">
          <mxGeometry x="449" y="810" width="80" height="40" as="geometry" />
        </mxCell>
        <mxCell id="qgOHyT52jXSN1r_aIjkW-11" style="edgeStyle=orthogonalEdgeStyle;rounded=0;orthogonalLoop=1;jettySize=auto;html=1;exitX=0.5;exitY=1;exitDx=0;exitDy=0;entryX=0;entryY=0.5;entryDx=0;entryDy=0;" edge="1" parent="WIyWlLk6GJQsqaUBKTNV-1" source="qgOHyT52jXSN1r_aIjkW-12" target="qgOHyT52jXSN1r_aIjkW-8">
          <mxGeometry relative="1" as="geometry" />
        </mxCell>
        <mxCell id="qgOHyT52jXSN1r_aIjkW-12" value="&lt;span style=&quot;font-size: 11px; text-wrap: nowrap; background-color: rgb(255, 255, 255);&quot;&gt;修改人员&lt;/span&gt;" style="rounded=0;whiteSpace=wrap;html=1;" vertex="1" parent="WIyWlLk6GJQsqaUBKTNV-1">
          <mxGeometry x="360" y="810" width="80" height="40" as="geometry" />
        </mxCell>
        <mxCell id="qgOHyT52jXSN1r_aIjkW-13" style="edgeStyle=orthogonalEdgeStyle;rounded=0;orthogonalLoop=1;jettySize=auto;html=1;exitX=0.5;exitY=1;exitDx=0;exitDy=0;entryX=0;entryY=0.5;entryDx=0;entryDy=0;" edge="1" parent="WIyWlLk6GJQsqaUBKTNV-1" source="qgOHyT52jXSN1r_aIjkW-14" target="qgOHyT52jXSN1r_aIjkW-8">
          <mxGeometry relative="1" as="geometry">
            <mxPoint x="529" y="930" as="targetPoint" />
          </mxGeometry>
        </mxCell>
        <mxCell id="qgOHyT52jXSN1r_aIjkW-14" value="&lt;span style=&quot;font-size: 11px; text-wrap: nowrap; background-color: rgb(255, 255, 255);&quot;&gt;人员离职&lt;/span&gt;" style="rounded=0;whiteSpace=wrap;html=1;" vertex="1" parent="WIyWlLk6GJQsqaUBKTNV-1">
          <mxGeometry x="270" y="810" width="80" height="40" as="geometry" />
        </mxCell>
        <mxCell id="qgOHyT52jXSN1r_aIjkW-15" style="edgeStyle=orthogonalEdgeStyle;rounded=0;orthogonalLoop=1;jettySize=auto;html=1;exitX=0.5;exitY=1;exitDx=0;exitDy=0;entryX=0.5;entryY=0;entryDx=0;entryDy=0;" edge="1" parent="WIyWlLk6GJQsqaUBKTNV-1" source="qgOHyT52jXSN1r_aIjkW-16" target="qgOHyT52jXSN1r_aIjkW-18">
          <mxGeometry relative="1" as="geometry" />
        </mxCell>
        <mxCell id="qgOHyT52jXSN1r_aIjkW-16" value="&lt;span style=&quot;font-size: 11px; text-wrap: nowrap; background-color: rgb(255, 255, 255);&quot;&gt;获取人脸&lt;/span&gt;" style="rounded=0;whiteSpace=wrap;html=1;" vertex="1" parent="WIyWlLk6GJQsqaUBKTNV-1">
          <mxGeometry x="540" y="780" width="80" height="40" as="geometry" />
        </mxCell>
        <mxCell id="qgOHyT52jXSN1r_aIjkW-17" style="edgeStyle=orthogonalEdgeStyle;rounded=0;orthogonalLoop=1;jettySize=auto;html=1;exitX=0.5;exitY=1;exitDx=0;exitDy=0;entryX=0.5;entryY=0;entryDx=0;entryDy=0;" edge="1" parent="WIyWlLk6GJQsqaUBKTNV-1" source="qgOHyT52jXSN1r_aIjkW-18" target="qgOHyT52jXSN1r_aIjkW-8">
          <mxGeometry relative="1" as="geometry" />
        </mxCell>
        <mxCell id="qgOHyT52jXSN1r_aIjkW-18" value="&lt;span style=&quot;font-size: 11px; text-wrap: nowrap; background-color: rgb(255, 255, 255);&quot;&gt;更新人脸&lt;/span&gt;" style="rounded=0;whiteSpace=wrap;html=1;" vertex="1" parent="WIyWlLk6GJQsqaUBKTNV-1">
          <mxGeometry x="540" y="840" width="80" height="40" as="geometry" />
        </mxCell>
        <mxCell id="qgOHyT52jXSN1r_aIjkW-19" style="edgeStyle=orthogonalEdgeStyle;rounded=0;orthogonalLoop=1;jettySize=auto;html=1;exitX=0.5;exitY=1;exitDx=0;exitDy=0;entryX=1;entryY=0.5;entryDx=0;entryDy=0;" edge="1" parent="WIyWlLk6GJQsqaUBKTNV-1" source="qgOHyT52jXSN1r_aIjkW-20" target="qgOHyT52jXSN1r_aIjkW-8">
          <mxGeometry relative="1" as="geometry" />
        </mxCell>
        <mxCell id="qgOHyT52jXSN1r_aIjkW-20" value="&lt;span style=&quot;font-size: 11px; text-wrap: nowrap; background-color: rgb(255, 255, 255);&quot;&gt;新增部门&lt;/span&gt;" style="rounded=0;whiteSpace=wrap;html=1;" vertex="1" parent="WIyWlLk6GJQsqaUBKTNV-1">
          <mxGeometry x="634" y="810" width="80" height="40" as="geometry" />
        </mxCell>
        <mxCell id="qgOHyT52jXSN1r_aIjkW-21" style="edgeStyle=orthogonalEdgeStyle;rounded=0;orthogonalLoop=1;jettySize=auto;html=1;exitX=0.5;exitY=1;exitDx=0;exitDy=0;entryX=1;entryY=0.5;entryDx=0;entryDy=0;" edge="1" parent="WIyWlLk6GJQsqaUBKTNV-1" source="qgOHyT52jXSN1r_aIjkW-22" target="qgOHyT52jXSN1r_aIjkW-8">
          <mxGeometry relative="1" as="geometry" />
        </mxCell>
        <mxCell id="qgOHyT52jXSN1r_aIjkW-22" value="&lt;span style=&quot;font-size: 11px; text-wrap: nowrap; background-color: rgb(255, 255, 255);&quot;&gt;修改部门&lt;/span&gt;" style="rounded=0;whiteSpace=wrap;html=1;" vertex="1" parent="WIyWlLk6GJQsqaUBKTNV-1">
          <mxGeometry x="723" y="810" width="80" height="40" as="geometry" />
        </mxCell>
        <mxCell id="qgOHyT52jXSN1r_aIjkW-23" style="edgeStyle=orthogonalEdgeStyle;rounded=0;orthogonalLoop=1;jettySize=auto;html=1;exitX=0.5;exitY=1;exitDx=0;exitDy=0;entryX=1;entryY=0.5;entryDx=0;entryDy=0;" edge="1" parent="WIyWlLk6GJQsqaUBKTNV-1" source="qgOHyT52jXSN1r_aIjkW-24" target="qgOHyT52jXSN1r_aIjkW-8">
          <mxGeometry relative="1" as="geometry" />
        </mxCell>
        <mxCell id="qgOHyT52jXSN1r_aIjkW-24" value="&lt;span style=&quot;font-size: 11px; text-wrap: nowrap; background-color: rgb(255, 255, 255);&quot;&gt;删除部门&lt;/span&gt;" style="rounded=0;whiteSpace=wrap;html=1;" vertex="1" parent="WIyWlLk6GJQsqaUBKTNV-1">
          <mxGeometry x="811" y="810" width="80" height="40" as="geometry" />
        </mxCell>
      </root>
    </mxGraphModel>
  </diagram>
</mxfile>
